<?xml version="1.0" encoding="utf-8"?>
<svg version="1.1" id="Layer_1" xmlns="http://www.w3.org/2000/svg" xmlns:xlink="http://www.w3.org/1999/xlink" x="0px" y="0px"
	 viewBox="-100 30 1300 1000" style="enable-background:new 0 0 1003.94 1123.2;" xml:space="preserve">
<style type="text/css">
	.st0{fill:#C4F7F7;}
	.st1{fill:#999999;}
</style>
<g>
	<g id="XMLID_1_">
		<g>
			<path class="st0" d="M566.43,715.67c0.47,9.44-6.18,16.88-15.29,17.15c-8.89,0.25-16.71-7.27-16.73-16.08
				c-0.02-8.61,6.93-15.67,15.65-15.91C559.23,700.58,565.99,706.7,566.43,715.67z M551.07,725.6c5.24-0.08,9.3-4.31,9.21-9.58
				c-0.1-5.28-4.24-9.28-9.56-9.22c-5.36,0.07-9.22,4.09-9.13,9.54C541.68,721.71,545.75,725.69,551.07,725.6z"/>
			<path class="st0" d="M721.38,747.22c6.01,2.79,8.57,6.77,8.04,13.24c-0.3,3.62-0.05,7.29-0.05,11.7
				c-2.05-0.36-3.93-0.35-5.53-1.02c-15.62-6.63-31.27-13.21-46.77-20.11c-12.75-5.69-24.21-13.66-36.16-20.78
				c-29.44-17.51-59.98-33.15-90.11-49.48c-8.72-4.74-17.56-9.27-28.19-14.87c7.41-6.24,12.94-10.9,18.92-15.94
				c3.11,1.75,6.06,3.2,8.79,5c20.63,13.63,43.04,23.83,65.25,34.51c10.42,5.01,20.06,11.63,30.09,17.48
				c11.48,6.7,22.82,13.69,34.55,19.92C693.72,734.05,707.5,740.77,721.38,747.22z"/>
			<path class="st0" d="M556.76,626.07c-0.28,1.34-0.19,2.21-0.58,2.55c-12.2,10.76-24.4,21.51-36.71,32.13
				c-3.38,2.92-7.12,3.33-10.82,0.18c-4.06-3.46-5.24-7.93-2.97-12.46c0.73-1.46,1.65-3.01,2.91-3.99
				c12.77-9.95,25.63-19.8,39.13-30.19C551.11,618.71,554.08,622.58,556.76,626.07z"/>
			<path class="st0" d="M625.27,622.96c5.26,6.9,6.68,14.29,5.17,23.35c-2.52,15.12-23.89,23.43-36.38,13.24
				c-4.61-3.76-9.03-7.93-12.81-12.51c-11.64-14.09-22.93-28.46-35.63-44.31c12.93-11.56,25-22.36,36.68-32.81
				c1.58,0.5,2.45,0.49,2.78,0.91C598.52,588.17,611.98,605.5,625.27,622.96z M627.18,640.72c1.1-6.84-2.56-12.8-10.86-15.66
				c-4.11-1.42-6.79-3.44-8.87-7.13c-2.36-4.17-5.75-7.32-11.02-7.41c-5.44-0.08-11.34,4.35-13.51,10.15
				c-2.11,5.64-0.76,11.53,4.64,14.83c3.69,2.27,5.56,4.63,6.65,8.91c2.06,8.13,8.83,11.9,17.6,11.01
				C619.6,654.63,625.9,648.6,627.18,640.72z"/>
			<path class="st0" d="M633.04,565.39c0.22,1.57-1.1,3.9-2.43,5.03c-7.57,6.39-15.35,12.53-23.76,19.32
				c-4.62-6.12-8.76-11.6-13.6-18c11.87-8.96,23.12-17.46,35.82-27.05C630.67,552.7,632.16,559.01,633.04,565.39z"/>
			<path class="st0" d="M854.96,465.59c7.5,0.68,12.43,5.58,12.31,11.79c-0.12,5.84-4.67,10.57-12.01,11.05
				c-5.91,0.39-11.92-0.39-17.87-0.87c-3.93-0.32-7.83-1.02-12.24-1.62c-3.12-20.43-2.98-20.64,15.86-20.78
				C845.66,465.13,850.34,465.18,854.96,465.59z"/>
			<path class="st0" d="M817.16,465.94c0,6.52,0,11.75,0,18.17c-23.47,0.39-46.43,0.77-69.56,1.16c-1.24-5.71-2.53-11.71-4.11-19.02
				C767.83,461.56,792.02,463.79,817.16,465.94z"/>
			<path class="st0" d="M715.3,499.96c0.01,1.39-1.11,3.19-2.25,4.14c-15.51,12.83-31.12,25.54-46.69,38.27
				c-3.88-6.24-6.99-11.25-10.83-17.43c18.16-15.17,36.96-30.43,58.73-45.36C714.72,487.66,715.22,493.81,715.3,499.96z"/>
			<path d="M911.59,700.76c9.27,0.86,19.11,13.28,17.83,22.45c-1.14,8.21-2.49,16.46-2.68,24.71c-0.94,42.1-4.86,83.78-16.36,124.45
				c-3.71,13.13-8.03,26.09-12.3,39.05c-4.88,14.78-15.08,20.77-30.58,18.84c-14.52-1.81-29.14-2.85-43.63-4.85
				c-17.73-2.44-33.02-10.53-45.6-23.03c-30.95-30.74-45.91-68.86-49.18-111.74c-0.62-8.12-2.83-12.58-10.48-15.55
				c-14.88-5.79-29.61-12.06-44.04-18.89c-12.87-6.1-25.26-13.21-38.34-20.13c-1.67,1.94-3.65,4.14-5.52,6.43
				c-62.41,76.25-174.27,80.18-242.34,8.94c-7.61-7.96-14.13-16.5-20.85-25.07c-39.13-49.94-90.48-74.94-154.01-74.68
				c-15.63,0.06-31.27,0.18-46.9-0.02c-17.09-0.21-32.73-5.45-47.08-14.61c-6.28-4.01-6.85-4.89-4.74-12.32
				c6.93-24.4,5.1-48.36-0.37-72.97c-29.6-133.33,1.95-250.63,96.8-348.96c58.83-60.98,131.96-95.91,216.28-106.5
				c163.91-20.61,318.48,69.1,385.9,220.55c10.84,24.36,17.86,50.16,22.79,76.44c0.66,3.51,1.62,6.96,2.54,10.87
				c10.98,0,21.27-0.1,31.56,0.03c8.52,0.1,8.9,0.53,9.85,8.86c2.58,22.49,5.1,44.99,7.7,67.47c1.38,11.91-9.21,24.78-22.99,26.06
				c-7.27,0.67-12.95,2.59-18.82,7.11c-9.77,7.53-21.86,8.33-32.14,2.41c-13.03-7.49-26.18-6.39-39.65-4.58
				c-8.47,1.14-16.77,3.62-26.03,5.7c2.61,49.45,5.16,97.89,7.73,146.71c7.29,2.71,13.67,5.56,20.32,7.47
				c35.17,10.13,70.36,20.26,106.57,26.11C892.34,699.05,901.98,699.87,911.59,700.76z M921.23,742.75
				c0.5-7.31,0.75-14.65,0.63-21.97c-0.17-9.44-3.62-12.91-12.78-14.05c-11.89-1.49-23.91-2.36-35.6-4.8
				c-37.14-7.74-74.04-16.5-110.02-28.75c-2.09-0.71-4.31-1.06-6.91-1.69c0,4.31,0.28,7.97-0.06,11.58
				c-0.59,6.37,2.25,9.61,8.18,11.65c14.48,4.97,28.63,10.95,43.21,15.59c11.05,3.52,22.46,6.18,33.88,8.2
				c15.72,2.78,31.62,4.55,47.42,6.87c3.83,0.56,7.6,1.55,10.47,2.16c0,10.39,0.45,19.68-0.12,28.91
				c-0.59,9.48-2.17,18.9-3.39,28.92c-46.77-3.14-92.02-6.61-135.58-27.11c0.66,8.97,1.18,16.12,1.73,23.61
				c4.23,1.87,8.1,3.71,12.08,5.3c24.3,9.73,49.78,14.43,75.61,17.68c10.89,1.38,21.82,2.65,32.58,4.74
				c11.34,2.22,12.65,4.22,11.71,15.57c-0.58,6.95-1.3,14-3.08,20.71c-4.03,15.11-8.5,30.12-13.3,45.01
				c-3.35,10.4-5.77,11.56-16.12,9.85c-5.58-0.93-11.1-2.25-16.7-2.99c-14.73-1.95-27.2-8.55-38.2-18.2
				c-5.26-4.61-10.48-9.28-15.43-14.22c-18.51-18.44-30.18-40.88-34.47-66.35c-2.74-16.26-2.09-33.1-2.88-49.68
				c-1.69-35.93-3.2-71.87-5.03-107.79c-2.24-43.9-4.72-87.79-7.12-131.68c-0.59-10.64-1.09-21.29-2.02-31.91
				c-0.51-5.96-4.4-9.63-9.36-9.88c-4.16-0.21-9,3.41-10.09,8.16c-0.58,2.53-0.31,5.3-0.17,7.95c1.83,33.58,3.75,67.16,5.56,100.74
				c2,37.18,3.94,74.36,5.84,111.54c1.5,29.26,2.71,58.53,4.42,87.77c0.66,11.23-1.48,22.72,2.47,33.69
				c5.06,14.09,9.57,28.43,15.62,42.09c6.94,15.69,17.8,28.95,30.44,40.48c10.22,9.32,22.23,16.23,36.03,18.37
				c16.74,2.59,33.64,4.29,50.52,5.82c10.83,0.99,16.46-3.1,20.46-13.59c11.3-29.67,19.87-60.18,23.76-91.65
				C918.56,794,919.48,768.32,921.23,742.75z M891.93,777.48c0.86-14.47,1.75-29.26,2.69-45.04c-24.63-3.9-47.57-6.06-69.73-11.45
				c-22.35-5.44-43.92-14.09-67.08-21.75c0.86,16.79,1.46,32.38,2.69,47.93c0.18,2.3,2.83,5.32,5.1,6.4
				c8.4,3.99,16.86,8.2,25.76,10.7c31.51,8.83,63.76,13.25,96.45,14.43C888.72,778.73,889.65,778.18,891.93,777.48z M870.43,894.66
				c8.27-24.88,17.59-49.98,18.68-78.3c-42.4-7.11-85.35-8.77-125.69-26.16c1.01,26.91,12.28,48.76,29.42,68.21
				C813.17,881.48,837.55,895.7,870.43,894.66z M867.27,477.38c0.12-6.21-4.81-11.11-12.31-11.79c-4.62-0.41-9.3-0.46-13.95-0.43
				c-18.84,0.14-18.98,0.35-15.86,20.78c4.41,0.6,8.31,1.3,12.24,1.62c5.95,0.48,11.96,1.26,17.87,0.87
				C862.6,487.95,867.15,483.22,867.27,477.38z M817.16,484.11c0-6.42,0-11.65,0-18.17c-25.14-2.15-49.33-4.38-73.67,0.31
				c1.58,7.31,2.87,13.31,4.11,19.02C770.73,484.88,793.69,484.5,817.16,484.11z M816.19,457.64c0.35-2.42,1.07-4.38,0.84-6.22
				c-2.63-21.12-3.77-42.59-8.4-63.27C770.77,218.99,611.52,99.23,428.44,122.03c-58.26,7.26-111.35,28.8-158.57,63.83
				c-33.98,25.21-63.72,54.66-84.93,91.77c-24.63,43.08-39.4,89.36-44.6,138.77c-4.88,46.28-0.53,91.7,11.07,136.61
				c1.53,5.92,4.72,9.69,10.22,12.56c4.58,2.38,8.9,5.92,12.27,9.86c11.02,12.92,21.34,26.43,32.37,39.35
				c6.62,7.76,12.35,15.56,11.23,26.48c-0.06,0.5,0.67,1.08,1.56,2.4c2.63,0.25,5.89,0.51,9.13,0.89
				c8.25,0.97,16.57,1.59,24.74,3.07c53.59,9.72,94.91,39.02,127.03,81.8c34,45.27,78.59,67.84,135.15,65.06
				c44.68-2.2,80.95-22.02,109.62-56.08c1.62-1.92,2.6-4.36,4.11-6.95c-2.77-1.91-4.82-3.54-7.07-4.84
				c-10.95-6.34-21.83-12.83-32.96-18.82c-22.85-12.31-45.83-24.37-68.82-36.41c-1.97-1.03-4.41-1.33-6.67-1.59
				c-7.49-0.86-12.08-5.36-14.59-11.99c-2.55-6.7-0.05-12.57,4.66-17.3c3.26-3.28,7.28-5.79,10.94-8.68
				c9.08-7.17,18.15-14.35,26.94-21.3c-1.58-4.21-2.7-7.21-3.75-10.03c4.02-3.39,7.6-6.32,11.08-9.36
				c9.54-8.31,18.98-16.73,28.58-24.97c3.26-2.78,6.55-5.8,11.57-2.83c1.24,0.74,4.15,0.28,5.35-0.73
				c12.65-10.74,27.85-18.31,38.64-31.43c2.62-3.19,6.72-5.22,10.31-7.51c3.87-2.47,8.16-4.29,11.85-6.98
				c5.65-4.11,10.91-8.74,16.37-13.12c15.84-12.67,31.62-25.42,47.59-37.91c2.53-1.98,5.82-3.42,8.97-4.08
				c7.08-1.47,14.28-2.99,21.47-3.24c17.25-0.61,34.52-0.52,51.78-0.68C805.97,457.6,810.86,457.64,816.19,457.64z M806.41,503.8
				c7.17,0.73,9.49-3.36,7.2-12.34c-17.01,0-34.25-0.22-51.47,0.07c-14.57,0.24-15.76,2.08-12.64,17.47c1.68-0.1,2.69,0,3.63-0.24
				C770.63,504.33,788.28,501.96,806.41,503.8z M729.42,760.46c0.53-6.47-2.03-10.45-8.04-13.24
				c-13.88-6.45-27.66-13.17-41.17-20.35c-11.73-6.23-23.07-13.22-34.55-19.92c-10.03-5.85-19.67-12.47-30.09-17.48
				c-22.21-10.68-44.62-20.88-65.25-34.51c-2.73-1.8-5.68-3.25-8.79-5c-5.98,5.04-11.51,9.7-18.92,15.94
				c10.63,5.6,19.47,10.13,28.19,14.87c30.13,16.33,60.67,31.97,90.11,49.48c11.95,7.12,23.41,15.09,36.16,20.78
				c15.5,6.9,31.15,13.48,46.77,20.11c1.6,0.67,3.48,0.66,5.53,1.02C729.37,767.75,729.12,764.08,729.42,760.46z M727.55,742.59
				c0-4.17,0.13-7.45-0.03-10.71c-0.53-11.29-1.78-22.58-1.58-33.85c0.15-9.09-3.38-14.4-11.11-19.04
				c-20.16-12.1-37.41-27.6-50.34-47.53c-1.39-2.14-3.1-4.07-6.27-8.2c-0.7,9.1-1.19,15.86-1.74,22.6
				c-1.33,16.2-2.13,32.47-4.3,48.56c-0.86,6.35,0.75,10.27,5.45,13.5c3.55,2.44,7.29,4.67,11.14,6.61
				c18.11,9.1,36.29,18.07,54.46,27.05C724.07,742,725.09,742.03,727.55,742.59z M724.06,662.08c0.39-5.94-2.37-9.56-6.82-13.34
				c-7.56-6.41-15.26-13.12-21.1-21.04c-18.99-25.73-31.76-54.48-38.35-85.86c-1.68-7.98-6.45-12.87-12.09-12.03
				c-6.45,0.96-11.36,8.48-10.16,15.87c1.11,6.89,2.11,13.83,3.76,20.6c7.88,32.25,25.54,59.13,47.41,83.32
				c9.99,11.06,22.21,19.88,37.29,27.95C724,671.24,723.76,666.65,724.06,662.08z M720.47,644.61c0.77-0.54,1.54-1.07,2.32-1.61
				c-1.88-35.68-3.76-71.37-5.64-107.02c-2.03,0-2.83-0.25-3.27,0.04c-14.85,10.02-26.78,22.87-36,38.15
				c-1.27,2.11-1.27,5.91-0.3,8.3c6.91,17,14.75,33.57,27.4,47.23C709.84,634.95,715.29,639.66,720.47,644.61z M713.05,504.1
				c1.14-0.95,2.26-2.75,2.25-4.14c-0.08-6.15-0.58-12.3-1.04-20.38c-21.77,14.93-40.57,30.19-58.73,45.36
				c3.84,6.18,6.95,11.19,10.83,17.43C681.93,529.64,697.54,516.93,713.05,504.1z M708.39,531.43c7.44-4.92,8.84-10.57,5.76-19.21
				c-2.8,1.96-5.27,3.46-7.48,5.28c-10.55,8.62-21.06,17.3-31.53,26.02c-10.06,8.37-10.04,8.4-4.99,20.75
				c0.36,0.9,0.95,1.7,2.23,3.92c2.31-2.8,4.03-4.74,5.59-6.81C686.62,549.88,696.39,539.35,708.39,531.43z M651.69,623.93
				c0.67-6.7-0.3-12.13-3.52-17.93c-4.03-7.24-6.98-15.06-10.42-22.62c-1.03-2.26-2.13-4.48-3.59-7.54
				c-7.94,6.44-15.03,12.2-22.57,18.32c7.38,9.87,14.12,18.48,20.42,27.39c13.67,19.32,2.35,45.24-21.05,48.45
				c-9.97,1.37-18.47-2.1-25.33-9.03c-6.07-6.13-11.47-12.93-17.2-19.41c-2.31-2.62-4.7-5.18-7.36-8.1
				c-4.53,4.09-8.2,7.41-13.06,11.81c29.6,22.23,63.93,33.89,96.61,51.74c1.12-5.89,2.47-10.62,2.85-15.42
				C648.97,662.37,649.76,643.1,651.69,623.93z M630.61,570.42c1.33-1.13,2.65-3.46,2.43-5.03c-0.88-6.38-2.37-12.69-3.97-20.7
				c-12.7,9.59-23.95,18.09-35.82,27.05c4.84,6.4,8.98,11.88,13.6,18C615.26,582.95,623.04,576.81,630.61,570.42z M630.44,646.31
				c1.51-9.06,0.09-16.45-5.17-23.35c-13.29-17.46-26.75-34.79-40.19-52.13c-0.33-0.42-1.2-0.41-2.78-0.91
				c-11.68,10.45-23.75,21.25-36.68,32.81c12.7,15.85,23.99,30.22,35.63,44.31c3.78,4.58,8.2,8.75,12.81,12.51
				C606.55,669.74,627.92,661.43,630.44,646.31z M556.18,628.62c0.39-0.34,0.3-1.21,0.58-2.55c-2.68-3.49-5.65-7.36-9.04-11.78
				c-13.5,10.39-26.36,20.24-39.13,30.19c-1.26,0.98-2.18,2.53-2.91,3.99c-2.27,4.53-1.09,9,2.97,12.46
				c3.7,3.15,7.44,2.74,10.82-0.18C531.78,650.13,543.98,639.38,556.18,628.62z"/>
			<path class="st0" d="M921.86,720.78c0.12,7.32-0.13,14.66-0.63,21.97c-1.75,25.57-2.67,51.25-5.81,76.65
				c-3.89,31.47-12.46,61.98-23.76,91.65c-4,10.49-9.63,14.58-20.46,13.59c-16.88-1.53-33.78-3.23-50.52-5.82
				c-13.8-2.14-25.81-9.05-36.03-18.37c-12.64-11.53-23.5-24.79-30.44-40.48c-6.05-13.66-10.56-28-15.62-42.09
				c-3.95-10.97-1.81-22.46-2.47-33.69c-1.71-29.24-2.92-58.51-4.42-87.77c-1.9-37.18-3.84-74.36-5.84-111.54
				c-1.81-33.58-3.73-67.16-5.56-100.74c-0.14-2.65-0.41-5.42,0.17-7.95c1.09-4.75,5.93-8.37,10.09-8.16
				c4.96,0.25,8.85,3.92,9.36,9.88c0.93,10.62,1.43,21.27,2.02,31.91c2.4,43.89,4.88,87.78,7.12,131.68
				c1.83,35.92,3.34,71.86,5.03,107.79c0.79,16.58,0.14,33.42,2.88,49.68c4.29,25.47,15.96,47.91,34.47,66.35
				c4.95,4.94,10.17,9.61,15.43,14.22c11,9.65,23.47,16.25,38.2,18.2c5.6,0.74,11.12,2.06,16.7,2.99
				c10.35,1.71,12.77,0.55,16.12-9.85c4.8-14.89,9.27-29.9,13.3-45.01c1.78-6.71,2.5-13.76,3.08-20.71
				c0.94-11.35-0.37-13.35-11.71-15.57c-10.76-2.09-21.69-3.36-32.58-4.74c-25.83-3.25-51.31-7.95-75.61-17.68
				c-3.98-1.59-7.85-3.43-12.08-5.3c-0.55-7.49-1.07-14.64-1.73-23.61c43.56,20.5,88.81,23.97,135.58,27.11
				c1.22-10.02,2.8-19.44,3.39-28.92c0.57-9.23,0.12-18.52,0.12-28.91c-2.87-0.61-6.64-1.6-10.47-2.16
				c-15.8-2.32-31.7-4.09-47.42-6.87c-11.42-2.02-22.83-4.68-33.88-8.2c-14.58-4.64-28.73-10.62-43.21-15.59
				c-5.93-2.04-8.77-5.28-8.18-11.65c0.34-3.61,0.06-7.27,0.06-11.58c2.6,0.63,4.82,0.98,6.91,1.69
				c35.98,12.25,72.88,21.01,110.02,28.75c11.69,2.44,23.71,3.31,35.6,4.8C918.24,707.87,921.69,711.34,921.86,720.78z"/>
			<path id="helmetcolor" class="st1" d="M817.03,451.42c0.23,1.84-0.49,3.8-0.84,6.22c-5.33,0-10.22-0.04-15.11,0.01
				c-17.26,0.16-34.53,0.07-51.78,0.68c-7.19,0.25-14.39,1.77-21.47,3.24c-3.15,0.66-6.44,2.1-8.97,4.08
				c-15.97,12.49-31.75,25.24-47.59,37.91c-5.46,4.38-10.72,9.01-16.37,13.12c-3.69,2.69-7.98,4.51-11.85,6.98
				c-3.59,2.29-7.69,4.32-10.31,7.51c-10.79,13.12-25.99,20.69-38.64,31.43c-1.2,1.01-4.11,1.47-5.35,0.73
				c-5.02-2.97-8.31,0.05-11.57,2.83c-9.6,8.24-19.04,16.66-28.58,24.97c-3.48,3.04-7.06,5.97-11.08,9.36
				c1.05,2.82,2.17,5.82,3.75,10.03c-8.79,6.95-17.86,14.13-26.94,21.3c-3.66,2.89-7.68,5.4-10.94,8.68
				c-4.71,4.73-7.21,10.6-4.66,17.3c2.51,6.63,7.1,11.13,14.59,11.99c2.26,0.26,4.7,0.56,6.67,1.59
				c22.99,12.04,45.97,24.1,68.82,36.41c11.13,5.99,22.01,12.48,32.96,18.82c2.25,1.3,4.3,2.93,7.07,4.84
				c-1.51,2.59-2.49,5.03-4.11,6.95c-28.67,34.06-64.94,53.88-109.62,56.08c-56.56,2.78-101.15-19.79-135.15-65.06
				c-32.12-42.78-73.44-72.08-127.03-81.8c-8.17-1.48-16.49-2.1-24.74-3.07c-3.24-0.38-6.5-0.64-9.13-0.89
				c-0.89-1.32-1.62-1.9-1.56-2.4c1.12-10.92-4.61-18.72-11.23-26.48c-11.03-12.92-21.35-26.43-32.37-39.35
				c-3.37-3.94-7.69-7.48-12.27-9.86c-5.5-2.87-8.69-6.64-10.22-12.56c-11.6-44.91-15.95-90.33-11.07-136.61
				c5.2-49.41,19.97-95.69,44.6-138.77c21.21-37.11,50.95-66.56,84.93-91.77c47.22-35.03,100.31-56.57,158.57-63.83
				c183.08-22.8,342.33,96.96,380.19,266.12C813.26,408.83,814.4,430.3,817.03,451.42z M573.84,717.31
				c0.37-12.1-10.17-23.37-22.29-23.85c-12.52-0.49-24.02,10.53-24.1,23.08c-0.07,12.42,10.28,22.9,22.79,23.07
				C562.84,739.79,573.47,729.75,573.84,717.31z M512.21,587.03c0.19-23.34-18.9-42.67-42.27-42.79
				c-24.02-0.11-41.85,18.11-42.74,41.99c-0.82,22.11,18.18,42.77,41.94,43.1C492.3,629.64,512.02,610.12,512.21,587.03z
				 M384.84,705c12.11-0.17,22.25-10.79,21.66-22.69c-0.57-11.64-10.96-21.48-22.35-21.17c-11.48,0.31-21.12,10.57-20.97,22.33
				C363.32,695.17,373.36,705.15,384.84,705z"/>
			<path class="st1" d="M813.61,491.46c2.29,8.98-0.03,13.07-7.2,12.34c-18.13-1.84-35.78,0.53-53.28,4.96
				c-0.94,0.24-1.95,0.14-3.63,0.24c-3.12-15.39-1.93-17.23,12.64-17.47C779.36,491.24,796.6,491.46,813.61,491.46z"/>
			<path class="st0" d="M717.24,648.74c4.45,3.78,7.21,7.4,6.82,13.34c-0.3,4.57-0.06,9.16-0.06,15.47
				c-15.08-8.07-27.3-16.89-37.29-27.95c-21.87-24.19-39.53-51.07-47.41-83.32c-1.65-6.77-2.65-13.71-3.76-20.6
				c-1.2-7.39,3.71-14.91,10.16-15.87c5.64-0.84,10.41,4.05,12.09,12.03c6.59,31.38,19.36,60.13,38.35,85.86
				C701.98,635.62,709.68,642.33,717.24,648.74z"/>
			<path class="st1" d="M714.15,512.22c3.08,8.64,1.68,14.29-5.76,19.21c-12,7.92-21.77,18.45-30.42,29.95
				c-1.56,2.07-3.28,4.01-5.59,6.81c-1.28-2.22-1.87-3.02-2.23-3.92c-5.05-12.35-5.07-12.38,4.99-20.75
				c10.47-8.72,20.98-17.4,31.53-26.02C708.88,515.68,711.35,514.18,714.15,512.22z"/>
			<path class="st1" d="M648.17,606c3.22,5.8,4.19,11.23,3.52,17.93c-1.93,19.17-2.72,38.44-4.22,57.66
				c-0.38,4.8-1.73,9.53-2.85,15.42c-32.68-17.85-67.01-29.51-96.61-51.74c4.86-4.4,8.53-7.72,13.06-11.81
				c2.66,2.92,5.05,5.48,7.36,8.1c5.73,6.48,11.13,13.28,17.2,19.41c6.86,6.93,15.36,10.4,25.33,9.03
				c23.4-3.21,34.72-29.13,21.05-48.45c-6.3-8.91-13.04-17.52-20.42-27.39c7.54-6.12,14.63-11.88,22.57-18.32
				c1.46,3.06,2.56,5.28,3.59,7.54C641.19,590.94,644.14,598.76,648.17,606z"/>
			<path d="M616.32,625.06c8.3,2.86,11.96,8.82,10.86,15.66c-1.28,7.88-7.58,13.91-15.37,14.7c-8.77,0.89-15.54-2.88-17.6-11.01
				c-1.09-4.28-2.96-6.64-6.65-8.91c-5.4-3.3-6.75-9.19-4.64-14.83c2.17-5.8,8.07-10.23,13.51-10.15c5.27,0.09,8.66,3.24,11.02,7.41
				C609.53,621.62,612.21,623.64,616.32,625.06z"/>
			<path d="M551.55,693.46c12.12,0.48,22.66,11.75,22.29,23.85c-0.37,12.44-11,22.48-23.6,22.3c-12.51-0.17-22.86-10.65-22.79-23.07
				C527.53,703.99,539.03,692.97,551.55,693.46z M551.14,732.82c9.11-0.27,15.76-7.71,15.29-17.15c-0.44-8.97-7.2-15.09-16.37-14.84
				c-8.72,0.24-15.67,7.3-15.65,15.91C534.43,725.55,542.25,733.07,551.14,732.82z"/>
			<path d="M560.28,716.02c0.09,5.27-3.97,9.5-9.21,9.58c-5.32,0.09-9.39-3.89-9.48-9.26c-0.09-5.45,3.77-9.47,9.13-9.54
				C556.04,706.74,560.18,710.74,560.28,716.02z"/>
			<path d="M469.94,544.24c23.37,0.12,42.46,19.45,42.27,42.79c-0.19,23.09-19.91,42.61-43.07,42.3
				c-23.76-0.33-42.76-20.99-41.94-43.1C428.09,562.35,445.92,544.13,469.94,544.24z"/>
			<path d="M406.5,682.31c0.59,11.9-9.55,22.52-21.66,22.69c-11.48,0.15-21.52-9.83-21.66-21.53c-0.15-11.76,9.49-22.02,20.97-22.33
				C395.54,660.83,405.93,670.67,406.5,682.31z M385.48,697.89c7.81-0.44,14.43-7.55,14.17-15.2c-0.27-7.84-6.99-14.02-15.14-13.93
				c-8.76,0.09-14.85,6.65-14.31,15.41C370.69,692.26,377.48,698.35,385.48,697.89z"/>
			<path class="st0" d="M394.26,678.53c2.25,4.64,1.38,7.34-3.6,10.88c0.01-0.03,0.02-0.07,0.03-0.1c-0.08,0.03-0.16,0.06-0.24,0.09
				c1.7-3.59,3.57-7.19-0.4-10.63c0,0.02,0,0.05,0,0.07c-6.19-5.88-9.15-5.06-11.97,3.24c0.63,2.18,1.26,4.36,1.9,6.54
				c3.27,3.59,6.87,2.18,10.47,0.78c-0.03,0.08-0.07,0.16-0.11,0.24c0.11-0.08,0.22-0.15,0.32-0.23c-1.38,5.49-5.43,5.01-9.42,3.82
				c-4.66-1.39-7.02-4.94-7.21-9.72c-0.2-4.87,2.33-8.31,6.67-10.16C385.91,671.12,391.83,673.54,394.26,678.53z"/>
			<path d="M390.69,689.31c-0.01,0.03-0.02,0.07-0.03,0.1c-0.1,0.08-0.21,0.15-0.32,0.23c0.04-0.08,0.08-0.16,0.11-0.24
				C390.53,689.37,390.61,689.34,390.69,689.31z"/>
			<path d="M390.05,678.77l0.23,0.29c-0.08-0.07-0.16-0.15-0.23-0.22C390.05,678.82,390.05,678.79,390.05,678.77z"/>
			<path d="M390.28,679.06c-0.08-0.03-0.16-0.06-0.24-0.09c0.01-0.04,0.01-0.08,0.01-0.13C390.12,678.91,390.2,678.99,390.28,679.06
				z"/>
			<path d="M378.08,682.08c3.05-4.84,7.26-4.96,11.96-3.11c-0.21,9.69-0.5,9.91-10.06,9.65
				C379.34,686.44,378.71,684.26,378.08,682.08z"/>
		</g>
	</g>
</g>
</svg>
