<?xml version="1.0" standalone="no"?>
<!DOCTYPE svg PUBLIC "-//W3C//DTD SVG 20010904//EN"
 "http://www.w3.org/TR/2001/REC-SVG-20010904/DTD/svg10.dtd">
<svg version="1.0" xmlns="http://www.w3.org/2000/svg"
 width="170.000000pt" height="130.000000pt" viewBox="0 0 170.000000 130.000000"
 preserveAspectRatio="xMidYMid meet">
<metadata>
Created by potrace 1.10, written by Peter Selinger 2001-2011
</metadata>
<g transform="translate(0.000000,130.000000) scale(0.050000,-0.050000)"
fill="#000000" stroke="none">
<path d="M1603 2557 c-298 -54 -463 -372 -331 -638 143 -289 435 -361 722
-179 38 25 48 24 81 -5 405 -367 991 275 620 678 -165 179 -546 207 -644 48
-7 -10 -54 6 -106 38 -106 64 -212 82 -342 58z m230 -107 c6 -17 -3 -61 -21
-98 -43 -91 -41 -100 28 -165 33 -31 60 -68 60 -82 0 -14 9 -26 20 -27 11 -2
27 -4 36 -5 43 -7 146 -139 132 -170 -8 -18 -12 -42 -10 -53 3 -11 -1 -13 -9
-5 -8 8 -26 0 -39 -18 -31 -43 -101 43 -133 161 -13 51 -47 103 -89 139 -82
68 -120 55 -78 -27 37 -72 38 -123 2 -207 -18 -44 -21 -78 -9 -100 14 -23 11
-33 -7 -33 -62 1 -73 28 -53 138 18 100 -19 206 -39 112 -4 -15 -24 -34 -45
-40 -22 -7 -39 -20 -39 -29 0 -9 -17 -21 -39 -26 -28 -8 -35 -22 -27 -53 7
-30 1 -42 -21 -42 -54 0 -64 96 -15 147 23 25 42 64 42 87 0 23 15 47 32 54
23 9 30 30 24 73 -8 53 4 73 83 145 52 46 99 100 107 119 16 43 91 46 107 5z
m487 -30 c0 -49 17 -73 89 -124 101 -71 103 -119 2 -57 -84 52 -91 51 -91 -7
0 -41 13 -51 79 -62 44 -7 122 -30 175 -50 95 -36 96 -36 141 5 48 45 56 29
32 -60 -13 -49 -66 -49 -219 -3 -97 30 -130 7 -116 -79 10 -66 4 -80 -61 -139
-53 -48 -69 -77 -61 -105 16 -49 -14 -50 -57 -2 -32 35 -30 41 35 112 73 80
71 123 -8 184 -16 12 -48 64 -70 115 -22 50 -51 92 -65 92 -24 0 -28 -15 -33
-108 -4 -80 -52 -57 -52 25 0 71 11 90 90 156 50 42 90 90 90 108 0 42 18 59
63 59 28 0 37 -15 37 -60z m-312 -43 c-7 -12 -15 -37 -18 -55 -9 -76 -55 -166
-72 -139 -20 32 -3 110 37 172 29 45 80 66 53 22z m-538 -204 c-32 -75 -77
-83 -87 -14 -7 53 44 105 87 88 22 -8 22 -21 0 -74z"/>
<path d="M850 2523 c-454 -206 -255 -934 240 -878 214 24 309 129 147 162 -8
2 -21 11 -30 21 -10 11 -7 13 7 5 49 -28 43 25 -9 77 -112 112 -208 144 -149
49 19 -31 19 -47 -1 -79 -37 -60 -58 -42 -135 114 -76 154 -131 226 -173 226
-35 0 -34 18 3 108 29 67 88 108 63 42 -8 -20 1 -30 25 -30 28 0 34 12 27 47
-6 32 3 52 25 60 49 19 73 -4 66 -64 -8 -74 124 -89 195 -22 25 24 56 37 68
30 11 -7 21 -4 21 7 0 12 23 27 50 34 71 18 62 38 -36 86 -110 54 -292 56
-404 5z"/>
<path d="M1115 2286 c-118 -64 -119 -88 -5 -166 96 -66 103 -62 68 36 -17 50
-15 76 9 123 16 34 28 60 26 59 -1 -1 -46 -24 -98 -52z"/>
<path d="M216 1055 c-62 -245 -119 -461 -127 -480 -12 -31 1 -35 109 -35 82 0
126 8 130 25 37 140 159 637 167 680 7 38 22 55 49 55 28 0 36 -10 28 -35 -6
-19 -46 -174 -90 -345 -44 -171 -85 -326 -93 -345 -12 -31 1 -35 108 -35 l121
0 20 75 c110 412 197 794 188 818 -19 50 -98 67 -303 67 l-195 0 -112 -445z"/>
<path d="M1007 1479 c-62 -23 -62 -24 -177 -466 -58 -222 -112 -419 -120 -438
-13 -31 0 -35 118 -35 112 0 132 5 132 35 0 110 71 345 105 345 19 0 35 -7 35
-15 -1 -22 -74 -289 -91 -331 -13 -33 -3 -35 111 -30 l126 6 110 446 c85 344
105 451 87 469 -28 28 -370 39 -436 14z m185 -224 c-7 -25 -18 -70 -25 -100
-11 -50 -44 -71 -71 -45 -27 28 32 190 70 190 31 0 36 -9 26 -45z"/>
<path d="M1740 1486 c-188 -10 -161 33 -280 -443 -133 -528 -142 -492 125
-499 265 -7 281 1 324 160 65 240 72 216 -64 216 l-120 0 -14 -91 c-13 -84
-54 -133 -85 -101 -7 6 11 100 40 207 29 107 63 233 74 280 16 62 32 85 59 85
35 0 35 -6 10 -90 -31 -104 -30 -105 105 -95 115 10 109 1 147 192 34 174 -4
195 -321 179z"/>
<path d="M2189 1479 c-8 -14 -229 -906 -229 -926 0 -8 52 -12 115 -9 l115 6
23 116 c32 162 47 164 47 7 l0 -133 121 0 120 0 -10 95 c-5 52 -15 160 -22
240 l-11 145 131 221 c151 253 155 269 69 252 -35 -7 -87 -13 -117 -13 -46 0
-62 -17 -112 -122 -65 -136 -89 -127 -41 16 18 51 32 95 32 98 0 10 -224 17
-231 7z"/>
<path d="M2843 1466 c-28 -22 -58 -82 -75 -147 -16 -60 -65 -244 -108 -410
-43 -165 -84 -317 -92 -336 -12 -31 0 -34 113 -29 l127 6 41 185 c32 149 47
185 76 185 19 0 35 -7 35 -15 0 -20 -72 -282 -91 -331 -13 -33 -2 -35 112 -30
l125 6 111 445 c88 354 106 450 86 470 -45 45 -405 46 -460 1z m210 -195 c-6
-15 -17 -60 -24 -100 -10 -53 -23 -71 -53 -71 -30 0 -37 9 -26 35 7 19 18 64
24 100 8 48 22 65 51 65 26 0 36 -10 28 -29z"/>
<path d="M228 200 c-45 -88 -79 -162 -76 -165 25 -25 166 15 184 52 l21 43 2
-45 c1 -40 11 -45 92 -45 78 0 90 5 82 35 -5 19 -15 53 -21 76 -10 32 10 58
92 120 l104 79 -86 6 c-68 5 -97 -3 -137 -40 l-50 -46 23 45 c23 43 20 45 -62
45 l-86 0 -82 -160z"/>
<path d="M674 204 c-92 -186 -92 -177 7 -167 80 7 126 67 236 308 3 8 -33 14
-80 14 l-87 -1 -76 -154z"/>
<path d="M988 345 c-13 -8 -56 -80 -96 -160 l-73 -145 190 0 190 0 31 60 31
60 -82 0 c-61 0 -92 -12 -120 -45 -56 -67 -48 -7 13 96 53 91 101 121 78 49
-22 -68 136 -57 167 11 13 29 18 60 12 70 -13 22 -309 25 -341 4z"/>
<path d="M1345 215 c-41 -80 -78 -152 -82 -160 -3 -8 31 -15 76 -15 55 0 86
10 94 30 6 17 20 30 31 30 11 0 15 -13 9 -30 -9 -24 6 -30 77 -30 l89 0 -12
90 c-7 50 -4 90 5 91 10 0 54 32 98 69 l80 69 -82 1 c-54 0 -98 -14 -128 -40
-50 -43 -83 -55 -44 -16 41 41 27 56 -56 56 -79 0 -80 -2 -155 -145z"/>
<path d="M1774 200 l-91 -160 198 0 198 0 30 59 c39 75 39 81 -4 83 -23 1 -18
8 17 20 57 21 110 102 89 136 -8 13 -81 22 -180 22 l-167 0 -90 -160z m258 68
c-7 -17 -12 -35 -12 -40 0 -4 -13 -8 -30 -8 -36 0 -39 23 -6 56 34 34 62 30
48 -8z"/>
<path d="M2293 323 c-18 -20 -33 -42 -33 -49 0 -7 -27 -58 -60 -114 -75 -126
-76 -120 19 -120 69 0 84 9 111 60 17 33 45 60 62 60 27 0 27 -5 -1 -44 -45
-66 -39 -76 45 -76 73 0 224 201 224 298 0 41 -329 28 -367 -15z m179 -55 c-7
-17 -12 -35 -12 -40 0 -4 -13 -8 -30 -8 -36 0 -39 23 -6 56 34 34 62 30 48 -8z"/>
<path d="M2661 200 l-80 -160 169 0 c179 0 257 50 102 64 l-69 6 69 116 c84
143 86 134 -21 134 l-89 0 -81 -160z"/>
<path d="M3034 207 c-42 -83 -74 -154 -70 -157 30 -29 326 -15 332 15 6 28 -7
35 -65 35 -84 0 -84 0 -24 95 106 170 106 165 -1 164 l-96 -1 -76 -151z"/>
</g>
</svg>
